REM DIRINDEX 1\2\6,1\2\7,1\2\8,1\2\9,1\3\10,1\3\11,1\4\12,1\4\13,1\4\14,1\5\15,1\5\16,1\5\17
REM DIRNAME folder01,folder02,folder03,folder04,folder05,folder06,folder07,folder08,folder09,folder10,folder11,folder12,folder13,folder14,folder15,folder16,folder17
TITLE ""
FILE "1900_2_sec05_0482_0500.mp3" MP3
  TRACK 01 AUDIO
    TITLE "0:"
    INDEX 01 00:00:00
  TRACK 02 AUDIO
    TITLE "13:cjc020_3069"
    INDEX 01 00:00:17
  TRACK 03 AUDIO
    TITLE "0:"
    INDEX 01 00:01:34
  TRACK 04 AUDIO
    TITLE "14:cjc020_3070"
    INDEX 01 00:01:36
  TRACK 05 AUDIO
    TITLE "0:"
    INDEX 01 00:05:30
  TRACK 06 AUDIO
    TITLE "13:cjc020_3071"
    INDEX 01 00:06:08
  TRACK 07 AUDIO
    TITLE "0:"
    INDEX 01 00:07:09
  TRACK 08 AUDIO
    TITLE "14:cjc020_3072"
    INDEX 01 00:07:15
  TRACK 09 AUDIO
    TITLE "0:"
    INDEX 01 00:09:59
  TRACK 10 AUDIO
    TITLE "13:cjc020_3073"
    INDEX 01 00:10:39
  TRACK 11 AUDIO
    TITLE "0:"
    INDEX 01 00:11:50
  TRACK 12 AUDIO
    TITLE "14:cjc020_3074"
    INDEX 01 00:11:54
  TRACK 13 AUDIO
    TITLE "0:"
    INDEX 01 00:14:09
  TRACK 14 AUDIO
    TITLE "13:cjc020_3075"
    INDEX 01 00:14:62
  TRACK 15 AUDIO
    TITLE "0:"
    INDEX 01 00:15:72
  TRACK 16 AUDIO
    TITLE "14:cjc020_3076"
    INDEX 01 00:16:02
  TRACK 17 AUDIO
    TITLE "0:"
    INDEX 01 00:18:27
  TRACK 18 AUDIO
    TITLE "13:cjc020_3077"
    INDEX 01 00:19:07
  TRACK 19 AUDIO
    TITLE "0:"
    INDEX 01 00:20:14
  TRACK 20 AUDIO
    TITLE "14:cjc020_3078"
    INDEX 01 00:20:22
  TRACK 21 AUDIO
    TITLE "0:"
    INDEX 01 00:21:39
  TRACK 22 AUDIO
    TITLE "13:cjc020_3079"
    INDEX 01 00:22:17
  TRACK 23 AUDIO
    TITLE "0:"
    INDEX 01 00:23:24
  TRACK 24 AUDIO
    TITLE "14:cjc020_3080"
    INDEX 01 00:23:28
  TRACK 25 AUDIO
    TITLE "0:"
    INDEX 01 00:25:58
  TRACK 26 AUDIO
    TITLE "13:cjc020_3081"
    INDEX 01 00:26:42
  TRACK 27 AUDIO
    TITLE "0:"
    INDEX 01 00:27:45
  TRACK 28 AUDIO
    TITLE "14:cjc020_3082"
    INDEX 01 00:27:47
  TRACK 29 AUDIO
    TITLE "0:"
    INDEX 01 00:30:65
  TRACK 30 AUDIO
    TITLE "13:cjc020_3083"
    INDEX 01 00:31:45
  TRACK 31 AUDIO
    TITLE "0:"
    INDEX 01 00:32:54
  TRACK 32 AUDIO
    TITLE "14:cjc020_3084"
    INDEX 01 00:32:58
  TRACK 33 AUDIO
    TITLE "0:"
    INDEX 01 00:35:02
  TRACK 34 AUDIO
    TITLE "13:cjc020_3085"
    INDEX 01 00:35:61
  TRACK 35 AUDIO
    TITLE "0:"
    INDEX 01 00:36:72
  TRACK 36 AUDIO
    TITLE "14:cjc020_3086"
    INDEX 01 00:37:01
  TRACK 37 AUDIO
    TITLE "0:"
    INDEX 01 00:41:08
  TRACK 38 AUDIO
    TITLE "13:cjc020_3087"
    INDEX 01 00:41:59
  TRACK 39 AUDIO
    TITLE "0:"
    INDEX 01 00:43:03
  TRACK 40 AUDIO
    TITLE "14:cjc020_3088"
    INDEX 01 00:43:09
  TRACK 41 AUDIO
    TITLE "0:"
    INDEX 01 00:44:09
  TRACK 42 AUDIO
    TITLE "13:cjc020_3089"
    INDEX 01 00:44:63
  TRACK 43 AUDIO
    TITLE "0:"
    INDEX 01 00:45:65
  TRACK 44 AUDIO
    TITLE "14:cjc020_3090"
    INDEX 01 00:45:71
  TRACK 45 AUDIO
    TITLE "0:"
    INDEX 01 00:49:39
  TRACK 46 AUDIO
    TITLE "13:cjc020_3091"
    INDEX 01 00:50:17
  TRACK 47 AUDIO
    TITLE "0:"
    INDEX 01 00:51:18
  TRACK 48 AUDIO
    TITLE "14:cjc020_3092"
    INDEX 01 00:51:20
  TRACK 49 AUDIO
    TITLE "0:"
    INDEX 01 00:53:74
  TRACK 50 AUDIO
    TITLE "13:cjc020_3093"
    INDEX 01 00:54:56
  TRACK 51 AUDIO
    TITLE "0:"
    INDEX 01 00:55:71
  TRACK 52 AUDIO
    TITLE "14:cjc020_3094"
    INDEX 01 00:56:04
  TRACK 53 AUDIO
    TITLE "0:"
    INDEX 01 00:59:59
  TRACK 54 AUDIO
    TITLE "13:cjc020_3095"
    INDEX 01 01:00:41
  TRACK 55 AUDIO
    TITLE "0:"
    INDEX 01 01:01:50
  TRACK 56 AUDIO
    TITLE "14:cjc020_3096"
    INDEX 01 01:01:56
  TRACK 57 AUDIO
    TITLE "0:"
    INDEX 01 01:04:15
  TRACK 58 AUDIO
    TITLE "13:cjc020_3097"
    INDEX 01 01:04:72
  TRACK 59 AUDIO
    TITLE "0:"
    INDEX 01 01:06:14
  TRACK 60 AUDIO
    TITLE "14:cjc020_3098"
    INDEX 01 01:06:18
  TRACK 61 AUDIO
    TITLE "0:"
    INDEX 01 01:08:54
  TRACK 62 AUDIO
    TITLE "13:cjc020_3099"
    INDEX 01 01:09:36
  TRACK 63 AUDIO
    TITLE "0:"
    INDEX 01 01:10:39
  TRACK 64 AUDIO
    TITLE "14:cjc020_3100"
    INDEX 01 01:10:43
  TRACK 65 AUDIO
    TITLE "0:"
    INDEX 01 01:16:32
  TRACK 66 AUDIO
    TITLE "13:cjc020_3101"
    INDEX 01 01:17:12
  TRACK 67 AUDIO
    TITLE "0:"
    INDEX 01 01:18:17
  TRACK 68 AUDIO
    TITLE "14:cjc020_3102"
    INDEX 01 01:18:19
  TRACK 69 AUDIO
    TITLE "0:"
    INDEX 01 01:20:51
  TRACK 70 AUDIO
    TITLE "13:cjc020_3103"
    INDEX 01 01:21:29
  TRACK 71 AUDIO
    TITLE "0:"
    INDEX 01 01:22:42
  TRACK 72 AUDIO
    TITLE "14:cjc020_3104"
    INDEX 01 01:22:46
  TRACK 73 AUDIO
    TITLE "0:"
    INDEX 01 01:25:06
  TRACK 74 AUDIO
    TITLE "13:cjc020_3105"
    INDEX 01 01:25:58
  TRACK 75 AUDIO
    TITLE "0:"
    INDEX 01 01:26:68
  TRACK 76 AUDIO
    TITLE "14:cjc020_3106"
    INDEX 01 01:26:74
  TRACK 77 AUDIO
    TITLE "0:"
    INDEX 01 01:29:17
